<?xml version="1.0" encoding="utf-8"?>
<!-- Svg Vector Icons : http://www.onlinewebfonts.com/icon -->
<!DOCTYPE svg PUBLIC "-//W3C//DTD SVG 1.1//EN" "http://www.w3.org/Graphics/SVG/1.1/DTD/svg11.dtd">
<svg version="1.1" xmlns="http://www.w3.org/2000/svg" xmlns:xlink="http://www.w3.org/1999/xlink" x="0px" y="0px" viewBox="0 0 1000 1000" enable-background="new 0 0 1000 1000" xml:space="preserve">
<metadata> Svg Vector Icons : http://www.onlinewebfonts.com/icon </metadata>
<g><path d="M269.7,555.7h39.8c4,13.8,9.5,27.2,16.5,39.8l-28.1,28.1c-3.1,3.1-3.6,8-1.2,11.7c9,13.5,19.3,26.1,30.6,37.4s23.9,21.6,37.4,30.6c3.7,2.5,8.6,2,11.7-1.2l28.2-28.1c12.6,7,26,12.5,39.8,16.5v39.8c0,4.4,3.1,8.2,7.5,9.1c15.8,3.2,32,4.8,48.1,4.8s32.3-1.6,48.1-4.8c4.4-0.9,7.5-4.7,7.5-9.1v-39.8c13.8-4,27.2-9.5,39.8-16.5l28.2,28.1c3.1,3.1,8,3.6,11.7,1.2c27.1-18,50-40.9,68-68c2.5-3.7,1.9-8.6-1.2-11.7L674,595.4c7-12.6,12.5-26,16.5-39.8h39.8c4.4,0,8.2-3.1,9.1-7.5c3.2-15.8,4.8-32,4.8-48.1c0-16.1-1.6-32.3-4.8-48.1c-0.8-4.3-4.7-7.4-9.1-7.4h-39.8c-4-13.8-9.5-27.2-16.5-39.8l28.1-28.2c3.1-3.1,3.6-8,1.2-11.7c-9-13.5-19.3-26.1-30.6-37.4c-11.3-11.3-23.9-21.6-37.4-30.6c-3.7-2.5-8.6-1.9-11.8,1.2L595.4,326c-12.6-7-26-12.5-39.8-16.5v-39.9c0-4.4-3.1-8.2-7.5-9.1c-31.7-6.3-64.6-6.3-96.2,0c-4.4,0.9-7.5,4.7-7.5,9.1v39.8c-13.8,4-27.2,9.5-39.8,16.5l-28.1-28.1c-3.2-3.1-8.1-3.6-11.8-1.2c-13.5,9-26.1,19.3-37.4,30.6c0,0-0.1,0.1-0.1,0.1c-11.3,11.3-21.6,23.8-30.6,37.3c-2.5,3.7-2,8.6,1.2,11.7l28.1,28.1c-7,12.6-12.5,26.1-16.5,39.9h-39.8c-4.4,0-8.2,3.1-9.1,7.5c-3.2,15.8-4.8,32.1-4.8,48.2s1.6,32.3,4.8,48.1C261.5,552.5,265.3,555.7,269.7,555.7z M500,430.2c38.6,0,69.9,31.4,69.9,69.9c0,38.5-31.3,69.9-69.9,69.9s-69.9-31.4-69.9-69.9C430.1,461.5,461.5,430.2,500,430.2z M636.6,128.3H565V46h71.5V128.3z M662.4,145.6V45.7c0-19.8,16-35.7,35.8-35.7c19.8,0,35.8,16,35.8,35.7v99.9c0,19.9-16,35.9-35.8,35.9C678.5,181.4,662.4,165.4,662.4,145.6z M467.6,145.6V45.7c0-19.8,16-35.7,35.8-35.7c19.8,0,35.8,16,35.8,35.7v99.9c0,19.9-16,35.9-35.8,35.9C483.6,181.4,467.5,165.4,467.6,145.6z M990,126.1v783.8c0,44.2-35.9,80.1-80.1,80.1L279,990c-13.4,0.6-27-3.5-38.2-12.2L31.4,808.4C18.4,797.8,10,781.5,10,763.4c0-0.3,0-637.2,0-637.2C10,82,45.9,46.1,90.1,46.1h156.8v82.3l-154.6,0v622.8h204.3v156.4h611.2V128.3H759.9V46H910C954.1,46,990,81.9,990,126.1z M441.7,128.3h-71.5V46h71.5L441.7,128.3L441.7,128.3z M272.7,145.6V45.7c0-19.8,16-35.7,35.9-35.7c19.8,0,35.8,16,35.8,35.7v99.9c0,19.9-16,35.9-35.8,35.9C288.8,181.4,272.7,165.4,272.7,145.6z"/></g>
</svg>